<?xml version="1.0" encoding="utf-8"?>
<!-- Generator: Adobe Illustrator 23.0.3, SVG Export Plug-In . SVG Version: 6.00 Build 0)  -->
<svg version="1.1" id="Layer_1" xmlns="http://www.w3.org/2000/svg" xmlns:xlink="http://www.w3.org/1999/xlink" x="0px" y="0px"
	 viewBox="0 0 600 400" style="enable-background:new 0 0 600 400;" xml:space="preserve">
<style type="text/css">
	.st0{fill:#BC0000;}
	.st1{fill:#FCD116;}
</style>
<rect class="st0" width="600" height="400"/>
<path class="st1" d="M81,20.1h15.8L101.6,5l4.9,15.1h15.8l-12.8,9.3l4.9,15.1l-12.8-9.3l-12.8,9.3l4.9-15.1L81,20.1z"/>
<path class="st0" d="M88.6,22.6h10l3.1-9.6l3.1,9.6h10l-8.1,5.9l3.1,9.6l-8.1-5.9l-8.1,5.9l3.1-9.6L88.6,22.6z"/>
<path class="st1" d="M72,58c95.4-14.5,75,108.5,5.3,64.1c0.9-1.2,0.3-0.6,1.2-1.8l-3.9-3.8c-0.4,0.2-1.1,0.6-1.7,1
	c-0.8-0.8-2.1-1.9-2.9-2.8l-4.6,3.8c0.6,0.8,2.1,2.4,2.7,3.1c-3.1,2.6-10.9,9.4-12,11c-4.8,6,4.2,13.7,8.7,8.8
	c1.8-1.4,6.5-8.8,9.6-13.4c8,8.4,19,14.3,33.7,14.1c3.3-0.1,22.5-0.8,34.9-21.5c9-15.1,6.4-37.8-9.7-53.5
	C115.7,49.9,89.5,51.3,72,58L72,58z"/>
<path class="st1" d="M94.3,84.3l12.1-12.1l-4-3.7l-15.8-1.1L64,88.5l12.7,12.6L87.6,91c16.6,17.2,47.8,49.9,50.3,52.8
	c2.5,2.8,10.2-3.9,7.6-6.8C143,134,105.8,94.3,94.3,84.3z"/>
</svg>
